<mxfile host="app.diagrams.net" modified="2022-06-24T08:17:38.769Z" agent="5.0 (Windows NT 10.0; Win64; x64) AppleWebKit/537.36 (KHTML, like Gecko) Chrome/102.0.0.0 Safari/537.36" etag="8p4_7QouAKeBPVZ4lpmk" version="18.1.1" type="github">
  <diagram id="rAvGkUZ5JN6vU3TNC9gn" name="第 1 页">
    <mxGraphModel dx="948" dy="508" grid="1" gridSize="10" guides="1" tooltips="1" connect="1" arrows="1" fold="1" page="1" pageScale="1" pageWidth="827" pageHeight="1169" math="0" shadow="0">
      <root>
        <mxCell id="0" />
        <mxCell id="1" parent="0" />
        <mxCell id="ufa77di7OasuTqnlZrfF-1" style="edgeStyle=orthogonalEdgeStyle;rounded=0;orthogonalLoop=1;jettySize=auto;html=1;entryX=0.5;entryY=1;entryDx=0;entryDy=0;" edge="1" parent="1" source="ufa77di7OasuTqnlZrfF-2" target="ufa77di7OasuTqnlZrfF-6">
          <mxGeometry relative="1" as="geometry">
            <Array as="points">
              <mxPoint x="290" y="960" />
              <mxPoint x="430" y="960" />
            </Array>
          </mxGeometry>
        </mxCell>
        <mxCell id="ufa77di7OasuTqnlZrfF-2" value="业务数据库" style="rounded=0;whiteSpace=wrap;html=1;" vertex="1" parent="1">
          <mxGeometry x="210" y="970" width="160" height="30" as="geometry" />
        </mxCell>
        <mxCell id="ufa77di7OasuTqnlZrfF-3" style="edgeStyle=orthogonalEdgeStyle;rounded=0;orthogonalLoop=1;jettySize=auto;html=1;entryX=0.5;entryY=1;entryDx=0;entryDy=0;" edge="1" parent="1" source="ufa77di7OasuTqnlZrfF-4" target="ufa77di7OasuTqnlZrfF-6">
          <mxGeometry relative="1" as="geometry">
            <Array as="points">
              <mxPoint x="565" y="960" />
              <mxPoint x="430" y="960" />
            </Array>
          </mxGeometry>
        </mxCell>
        <mxCell id="ufa77di7OasuTqnlZrfF-4" value="日志系统" style="rounded=0;whiteSpace=wrap;html=1;" vertex="1" parent="1">
          <mxGeometry x="480" y="970" width="170" height="30" as="geometry" />
        </mxCell>
        <object label="" id="ufa77di7OasuTqnlZrfF-5">
          <mxCell style="edgeStyle=orthogonalEdgeStyle;rounded=0;orthogonalLoop=1;jettySize=auto;html=1;exitX=0.5;exitY=0;exitDx=0;exitDy=0;entryX=0.5;entryY=1;entryDx=0;entryDy=0;fontFamily=Georgia;" edge="1" parent="1" source="ufa77di7OasuTqnlZrfF-6" target="ufa77di7OasuTqnlZrfF-10">
            <mxGeometry relative="1" as="geometry" />
          </mxCell>
        </object>
        <mxCell id="ufa77di7OasuTqnlZrfF-6" value="分布式文件系统" style="rounded=0;whiteSpace=wrap;html=1;gradientColor=none;" vertex="1" parent="1">
          <mxGeometry x="210" y="910" width="440" height="30" as="geometry" />
        </mxCell>
        <mxCell id="ufa77di7OasuTqnlZrfF-7" style="edgeStyle=orthogonalEdgeStyle;rounded=0;orthogonalLoop=1;jettySize=auto;html=1;entryX=0.5;entryY=1;entryDx=0;entryDy=0;fontFamily=Georgia;" edge="1" parent="1" source="ufa77di7OasuTqnlZrfF-10" target="ufa77di7OasuTqnlZrfF-20">
          <mxGeometry relative="1" as="geometry" />
        </mxCell>
        <mxCell id="ufa77di7OasuTqnlZrfF-8" style="edgeStyle=orthogonalEdgeStyle;rounded=0;orthogonalLoop=1;jettySize=auto;html=1;entryX=0.659;entryY=1.04;entryDx=0;entryDy=0;entryPerimeter=0;fontFamily=Georgia;fontSize=8;" edge="1" parent="1" source="ufa77di7OasuTqnlZrfF-10" target="ufa77di7OasuTqnlZrfF-30">
          <mxGeometry relative="1" as="geometry" />
        </mxCell>
        <mxCell id="ufa77di7OasuTqnlZrfF-9" style="edgeStyle=orthogonalEdgeStyle;rounded=0;orthogonalLoop=1;jettySize=auto;html=1;entryX=0.5;entryY=1;entryDx=0;entryDy=0;fontFamily=Georgia;fontSize=8;" edge="1" parent="1" source="ufa77di7OasuTqnlZrfF-10" target="ufa77di7OasuTqnlZrfF-32">
          <mxGeometry relative="1" as="geometry" />
        </mxCell>
        <mxCell id="ufa77di7OasuTqnlZrfF-10" value="批量处理/计算" style="rounded=0;whiteSpace=wrap;html=1;" vertex="1" parent="1">
          <mxGeometry x="390" y="850" width="80" height="30" as="geometry" />
        </mxCell>
        <mxCell id="ufa77di7OasuTqnlZrfF-11" value="" style="group" vertex="1" connectable="0" parent="1">
          <mxGeometry x="210" y="660" width="120" height="140" as="geometry" />
        </mxCell>
        <mxCell id="ufa77di7OasuTqnlZrfF-12" value="" style="rounded=0;whiteSpace=wrap;html=1;" vertex="1" parent="ufa77di7OasuTqnlZrfF-11">
          <mxGeometry width="120" height="140" as="geometry" />
        </mxCell>
        <mxCell id="ufa77di7OasuTqnlZrfF-13" value="协同过滤" style="text;html=1;strokeColor=none;fillColor=none;align=center;verticalAlign=middle;whiteSpace=wrap;rounded=0;fontStyle=1" vertex="1" parent="ufa77di7OasuTqnlZrfF-11">
          <mxGeometry x="25" width="60" height="30" as="geometry" />
        </mxCell>
        <mxCell id="ufa77di7OasuTqnlZrfF-14" value="" style="group" vertex="1" connectable="0" parent="ufa77di7OasuTqnlZrfF-11">
          <mxGeometry x="10" y="30" width="97.5" height="30" as="geometry" />
        </mxCell>
        <mxCell id="ufa77di7OasuTqnlZrfF-15" value="" style="rounded=1;whiteSpace=wrap;html=1;" vertex="1" parent="ufa77di7OasuTqnlZrfF-14">
          <mxGeometry x="12.5" width="85" height="22.5" as="geometry" />
        </mxCell>
        <mxCell id="ufa77di7OasuTqnlZrfF-16" value="ALS模型" style="rounded=1;whiteSpace=wrap;html=1;" vertex="1" parent="ufa77di7OasuTqnlZrfF-14">
          <mxGeometry x="1" y="7.5" width="85" height="22.5" as="geometry" />
        </mxCell>
        <mxCell id="ufa77di7OasuTqnlZrfF-17" value="" style="rounded=1;whiteSpace=wrap;html=1;" vertex="1" parent="ufa77di7OasuTqnlZrfF-11">
          <mxGeometry x="21.5" y="70" width="85" height="22.5" as="geometry" />
        </mxCell>
        <mxCell id="ufa77di7OasuTqnlZrfF-18" value="评分矩阵" style="rounded=1;whiteSpace=wrap;html=1;" vertex="1" parent="ufa77di7OasuTqnlZrfF-11">
          <mxGeometry x="10" y="77.5" width="85" height="22.5" as="geometry" />
        </mxCell>
        <mxCell id="ufa77di7OasuTqnlZrfF-19" value="" style="rounded=1;whiteSpace=wrap;html=1;" vertex="1" parent="ufa77di7OasuTqnlZrfF-11">
          <mxGeometry x="15.75" y="110" width="85" height="22.5" as="geometry" />
        </mxCell>
        <mxCell id="ufa77di7OasuTqnlZrfF-20" value="评分偏好" style="rounded=1;whiteSpace=wrap;html=1;" vertex="1" parent="ufa77di7OasuTqnlZrfF-11">
          <mxGeometry x="4.25" y="117.5" width="85" height="22.5" as="geometry" />
        </mxCell>
        <mxCell id="ufa77di7OasuTqnlZrfF-21" value="" style="group" vertex="1" connectable="0" parent="1">
          <mxGeometry x="370" y="660" width="120" height="140" as="geometry" />
        </mxCell>
        <mxCell id="ufa77di7OasuTqnlZrfF-22" value="" style="rounded=0;whiteSpace=wrap;html=1;" vertex="1" parent="ufa77di7OasuTqnlZrfF-21">
          <mxGeometry width="120" height="140" as="geometry" />
        </mxCell>
        <mxCell id="ufa77di7OasuTqnlZrfF-23" value="基于内容" style="text;html=1;strokeColor=none;fillColor=none;align=center;verticalAlign=middle;whiteSpace=wrap;rounded=0;fontStyle=1" vertex="1" parent="ufa77di7OasuTqnlZrfF-21">
          <mxGeometry x="25" width="60" height="30" as="geometry" />
        </mxCell>
        <mxCell id="ufa77di7OasuTqnlZrfF-24" value="" style="group" vertex="1" connectable="0" parent="ufa77di7OasuTqnlZrfF-21">
          <mxGeometry x="10" y="30" width="97.5" height="30" as="geometry" />
        </mxCell>
        <mxCell id="ufa77di7OasuTqnlZrfF-25" value="" style="rounded=1;whiteSpace=wrap;html=1;" vertex="1" parent="ufa77di7OasuTqnlZrfF-24">
          <mxGeometry x="12.5" width="85" height="22.5" as="geometry" />
        </mxCell>
        <mxCell id="ufa77di7OasuTqnlZrfF-26" value="兴趣特征" style="rounded=1;whiteSpace=wrap;html=1;" vertex="1" parent="ufa77di7OasuTqnlZrfF-24">
          <mxGeometry x="1" y="7.5" width="85" height="22.5" as="geometry" />
        </mxCell>
        <mxCell id="ufa77di7OasuTqnlZrfF-27" value="" style="rounded=1;whiteSpace=wrap;html=1;" vertex="1" parent="ufa77di7OasuTqnlZrfF-21">
          <mxGeometry x="21.5" y="70" width="85" height="22.5" as="geometry" />
        </mxCell>
        <mxCell id="ufa77di7OasuTqnlZrfF-28" value="属性特征" style="rounded=1;whiteSpace=wrap;html=1;" vertex="1" parent="ufa77di7OasuTqnlZrfF-21">
          <mxGeometry x="10" y="77.5" width="85" height="22.5" as="geometry" />
        </mxCell>
        <mxCell id="ufa77di7OasuTqnlZrfF-29" value="" style="rounded=1;whiteSpace=wrap;html=1;" vertex="1" parent="ufa77di7OasuTqnlZrfF-21">
          <mxGeometry x="15.75" y="110" width="85" height="22.5" as="geometry" />
        </mxCell>
        <mxCell id="ufa77di7OasuTqnlZrfF-30" value="画像特征" style="rounded=1;whiteSpace=wrap;html=1;" vertex="1" parent="ufa77di7OasuTqnlZrfF-21">
          <mxGeometry x="4.25" y="117.5" width="85" height="22.5" as="geometry" />
        </mxCell>
        <mxCell id="ufa77di7OasuTqnlZrfF-31" value="" style="group" vertex="1" connectable="0" parent="1">
          <mxGeometry x="530" y="660" width="120" height="140" as="geometry" />
        </mxCell>
        <mxCell id="ufa77di7OasuTqnlZrfF-32" value="" style="rounded=0;whiteSpace=wrap;html=1;" vertex="1" parent="ufa77di7OasuTqnlZrfF-31">
          <mxGeometry width="120" height="140" as="geometry" />
        </mxCell>
        <mxCell id="ufa77di7OasuTqnlZrfF-33" value="排序模型" style="text;html=1;strokeColor=none;fillColor=none;align=center;verticalAlign=middle;whiteSpace=wrap;rounded=0;fontStyle=1" vertex="1" parent="ufa77di7OasuTqnlZrfF-31">
          <mxGeometry x="25" width="60" height="30" as="geometry" />
        </mxCell>
        <mxCell id="ufa77di7OasuTqnlZrfF-34" value="" style="group" vertex="1" connectable="0" parent="ufa77di7OasuTqnlZrfF-31">
          <mxGeometry x="10" y="30" width="97.5" height="30" as="geometry" />
        </mxCell>
        <mxCell id="ufa77di7OasuTqnlZrfF-35" value="" style="rounded=1;whiteSpace=wrap;html=1;" vertex="1" parent="ufa77di7OasuTqnlZrfF-34">
          <mxGeometry x="12.5" width="85" height="22.5" as="geometry" />
        </mxCell>
        <mxCell id="ufa77di7OasuTqnlZrfF-36" value="LR模型" style="rounded=1;whiteSpace=wrap;html=1;" vertex="1" parent="ufa77di7OasuTqnlZrfF-34">
          <mxGeometry x="1" y="7.5" width="85" height="22.5" as="geometry" />
        </mxCell>
        <mxCell id="ufa77di7OasuTqnlZrfF-37" value="" style="rounded=1;whiteSpace=wrap;html=1;" vertex="1" parent="ufa77di7OasuTqnlZrfF-31">
          <mxGeometry x="21.5" y="100" width="85" height="22.5" as="geometry" />
        </mxCell>
        <mxCell id="ufa77di7OasuTqnlZrfF-38" value="GBDT模型" style="rounded=1;whiteSpace=wrap;html=1;" vertex="1" parent="ufa77di7OasuTqnlZrfF-31">
          <mxGeometry x="10" y="107.5" width="85" height="22.5" as="geometry" />
        </mxCell>
        <mxCell id="ufa77di7OasuTqnlZrfF-39" value="定期处理" style="text;html=1;strokeColor=none;fillColor=none;align=center;verticalAlign=middle;whiteSpace=wrap;rounded=0;fontFamily=Georgia;" vertex="1" parent="1">
          <mxGeometry x="400" y="890" width="60" height="15" as="geometry" />
        </mxCell>
        <mxCell id="ufa77di7OasuTqnlZrfF-40" value="特征抽取&lt;br style=&quot;font-size: 8px;&quot;&gt;特征转化为行为数据" style="text;html=1;strokeColor=none;fillColor=none;align=center;verticalAlign=middle;whiteSpace=wrap;rounded=0;fontFamily=Georgia;fontSize=8;fontStyle=1;labelBackgroundColor=default;" vertex="1" parent="1">
          <mxGeometry x="232" y="850" width="60" height="30" as="geometry" />
        </mxCell>
        <mxCell id="ufa77di7OasuTqnlZrfF-41" value="特征抽取&lt;br style=&quot;font-size: 8px;&quot;&gt;特征转化为行为数据、属性数据" style="text;html=1;strokeColor=none;fillColor=none;align=center;verticalAlign=middle;whiteSpace=wrap;rounded=0;fontFamily=Georgia;fontSize=8;fontStyle=1;labelBackgroundColor=default;" vertex="1" parent="1">
          <mxGeometry x="370" y="820" width="120" height="23" as="geometry" />
        </mxCell>
        <mxCell id="ufa77di7OasuTqnlZrfF-42" value="历史样本" style="text;html=1;strokeColor=none;fillColor=none;align=center;verticalAlign=middle;whiteSpace=wrap;rounded=0;fontFamily=Georgia;fontSize=8;fontStyle=1;labelBackgroundColor=default;" vertex="1" parent="1">
          <mxGeometry x="560" y="843" width="60" height="23" as="geometry" />
        </mxCell>
        <mxCell id="ufa77di7OasuTqnlZrfF-43" style="edgeStyle=orthogonalEdgeStyle;rounded=0;orthogonalLoop=1;jettySize=auto;html=1;entryX=0;entryY=0.5;entryDx=0;entryDy=0;fontFamily=Helvetica;fontSize=11;" edge="1" parent="1" source="ufa77di7OasuTqnlZrfF-49" target="ufa77di7OasuTqnlZrfF-74">
          <mxGeometry relative="1" as="geometry" />
        </mxCell>
        <mxCell id="ufa77di7OasuTqnlZrfF-44" style="edgeStyle=orthogonalEdgeStyle;rounded=0;orthogonalLoop=1;jettySize=auto;html=1;entryX=0.5;entryY=1;entryDx=0;entryDy=0;fontFamily=Georgia;fontSize=11;" edge="1" parent="1" source="ufa77di7OasuTqnlZrfF-13" target="ufa77di7OasuTqnlZrfF-49">
          <mxGeometry relative="1" as="geometry" />
        </mxCell>
        <mxCell id="ufa77di7OasuTqnlZrfF-45" style="edgeStyle=orthogonalEdgeStyle;rounded=0;orthogonalLoop=1;jettySize=auto;html=1;entryX=0.5;entryY=1;entryDx=0;entryDy=0;fontFamily=Georgia;fontSize=11;" edge="1" parent="1" source="ufa77di7OasuTqnlZrfF-23" target="ufa77di7OasuTqnlZrfF-49">
          <mxGeometry relative="1" as="geometry" />
        </mxCell>
        <mxCell id="ufa77di7OasuTqnlZrfF-46" value="合并候选集" style="text;html=1;strokeColor=none;fillColor=none;align=center;verticalAlign=middle;whiteSpace=wrap;rounded=0;labelBackgroundColor=default;fontFamily=Helvetica;fontSize=11;" vertex="1" parent="1">
          <mxGeometry x="490" y="551.25" width="20" height="28.75" as="geometry" />
        </mxCell>
        <mxCell id="ufa77di7OasuTqnlZrfF-47" value="&lt;b&gt;排序&amp;amp;&amp;amp;过滤&lt;/b&gt;" style="rounded=0;whiteSpace=wrap;html=1;" vertex="1" parent="1">
          <mxGeometry x="210" y="460" width="430" height="30" as="geometry" />
        </mxCell>
        <mxCell id="ufa77di7OasuTqnlZrfF-48" value="" style="group" vertex="1" connectable="0" parent="1">
          <mxGeometry x="210" y="530" width="270" height="80" as="geometry" />
        </mxCell>
        <mxCell id="ufa77di7OasuTqnlZrfF-49" value="" style="rounded=0;whiteSpace=wrap;html=1;" vertex="1" parent="ufa77di7OasuTqnlZrfF-48">
          <mxGeometry width="270" height="80" as="geometry" />
        </mxCell>
        <mxCell id="ufa77di7OasuTqnlZrfF-50" value="画像召回" style="rounded=1;whiteSpace=wrap;html=1;" vertex="1" parent="ufa77di7OasuTqnlZrfF-48">
          <mxGeometry x="22" y="10" width="85" height="22.5" as="geometry" />
        </mxCell>
        <mxCell id="ufa77di7OasuTqnlZrfF-51" value="热门召回" style="rounded=1;whiteSpace=wrap;html=1;" vertex="1" parent="ufa77di7OasuTqnlZrfF-48">
          <mxGeometry x="175" y="10" width="85" height="22.5" as="geometry" />
        </mxCell>
        <mxCell id="ufa77di7OasuTqnlZrfF-52" value="其他召回" style="rounded=1;whiteSpace=wrap;html=1;" vertex="1" parent="ufa77di7OasuTqnlZrfF-48">
          <mxGeometry x="175" y="50" width="85" height="22.5" as="geometry" />
        </mxCell>
        <mxCell id="ufa77di7OasuTqnlZrfF-53" value="协同过滤召回" style="rounded=1;whiteSpace=wrap;html=1;" vertex="1" parent="ufa77di7OasuTqnlZrfF-48">
          <mxGeometry x="22" y="50" width="85" height="22.5" as="geometry" />
        </mxCell>
        <mxCell id="ufa77di7OasuTqnlZrfF-54" value="召回" style="text;html=1;strokeColor=none;fillColor=none;align=center;verticalAlign=middle;whiteSpace=wrap;rounded=0;labelBackgroundColor=default;fontFamily=Georgia;fontSize=13;fontStyle=1" vertex="1" parent="ufa77di7OasuTqnlZrfF-48">
          <mxGeometry x="110" y="10" width="60" height="30" as="geometry" />
        </mxCell>
        <mxCell id="ufa77di7OasuTqnlZrfF-55" value="&lt;b&gt;推荐中心&lt;/b&gt;" style="rounded=0;whiteSpace=wrap;html=1;" vertex="1" parent="1">
          <mxGeometry x="210" y="390" width="430" height="30" as="geometry" />
        </mxCell>
        <mxCell id="ufa77di7OasuTqnlZrfF-56" value="" style="endArrow=classic;startArrow=classic;html=1;rounded=0;fontFamily=Helvetica;fontSize=11;entryX=0.5;entryY=1;entryDx=0;entryDy=0;" edge="1" parent="1" source="ufa77di7OasuTqnlZrfF-47" target="ufa77di7OasuTqnlZrfF-55">
          <mxGeometry width="50" height="50" relative="1" as="geometry">
            <mxPoint x="360" y="580" as="sourcePoint" />
            <mxPoint x="410" y="530" as="targetPoint" />
          </mxGeometry>
        </mxCell>
        <mxCell id="ufa77di7OasuTqnlZrfF-57" value="" style="edgeStyle=orthogonalEdgeStyle;rounded=0;orthogonalLoop=1;jettySize=auto;html=1;fontFamily=Helvetica;fontSize=11;" edge="1" parent="1" source="ufa77di7OasuTqnlZrfF-62" target="ufa77di7OasuTqnlZrfF-55">
          <mxGeometry relative="1" as="geometry" />
        </mxCell>
        <mxCell id="ufa77di7OasuTqnlZrfF-58" value="" style="edgeStyle=orthogonalEdgeStyle;rounded=0;orthogonalLoop=1;jettySize=auto;html=1;fontFamily=Helvetica;fontSize=11;" edge="1" parent="1" source="ufa77di7OasuTqnlZrfF-62" target="ufa77di7OasuTqnlZrfF-55">
          <mxGeometry relative="1" as="geometry" />
        </mxCell>
        <mxCell id="ufa77di7OasuTqnlZrfF-59" value="" style="edgeStyle=orthogonalEdgeStyle;rounded=0;orthogonalLoop=1;jettySize=auto;html=1;fontFamily=Helvetica;fontSize=11;" edge="1" parent="1" source="ufa77di7OasuTqnlZrfF-62" target="ufa77di7OasuTqnlZrfF-55">
          <mxGeometry relative="1" as="geometry" />
        </mxCell>
        <mxCell id="ufa77di7OasuTqnlZrfF-60" style="edgeStyle=orthogonalEdgeStyle;rounded=0;orthogonalLoop=1;jettySize=auto;html=1;exitX=0.5;exitY=0.5;exitDx=0;exitDy=0;exitPerimeter=0;labelBackgroundColor=default;labelBorderColor=default;fontFamily=Helvetica;fontSize=8;fontColor=default;entryX=1;entryY=0.75;entryDx=0;entryDy=0;" edge="1" parent="1" source="ufa77di7OasuTqnlZrfF-62" target="ufa77di7OasuTqnlZrfF-4">
          <mxGeometry relative="1" as="geometry">
            <mxPoint x="710" y="570" as="targetPoint" />
            <Array as="points">
              <mxPoint x="850" y="310" />
              <mxPoint x="850" y="992" />
            </Array>
          </mxGeometry>
        </mxCell>
        <mxCell id="ufa77di7OasuTqnlZrfF-61" value="用户反馈" style="edgeLabel;html=1;align=center;verticalAlign=middle;resizable=0;points=[];fontSize=8;fontFamily=Helvetica;fontColor=default;fontStyle=1" vertex="1" connectable="0" parent="ufa77di7OasuTqnlZrfF-60">
          <mxGeometry x="0.1868" y="2" relative="1" as="geometry">
            <mxPoint as="offset" />
          </mxGeometry>
        </mxCell>
        <mxCell id="ufa77di7OasuTqnlZrfF-62" value="" style="shape=umlActor;verticalLabelPosition=bottom;verticalAlign=top;html=1;labelBackgroundColor=default;fontFamily=Helvetica;fontSize=11;" vertex="1" parent="1">
          <mxGeometry x="410" y="280" width="30" height="60" as="geometry" />
        </mxCell>
        <mxCell id="ufa77di7OasuTqnlZrfF-63" value="用户请求" style="text;html=1;strokeColor=none;fillColor=none;align=center;verticalAlign=middle;whiteSpace=wrap;rounded=0;labelBackgroundColor=default;fontFamily=Helvetica;fontSize=11;" vertex="1" parent="1">
          <mxGeometry x="354" y="355" width="60" height="20" as="geometry" />
        </mxCell>
        <mxCell id="ufa77di7OasuTqnlZrfF-64" value="返回推荐结果" style="text;html=1;strokeColor=none;fillColor=none;align=center;verticalAlign=middle;whiteSpace=wrap;rounded=0;labelBackgroundColor=default;fontFamily=Helvetica;fontSize=11;" vertex="1" parent="1">
          <mxGeometry x="440" y="350" width="75" height="30" as="geometry" />
        </mxCell>
        <mxCell id="ufa77di7OasuTqnlZrfF-65" value="" style="group" vertex="1" connectable="0" parent="1">
          <mxGeometry x="70" y="920" width="130" height="70" as="geometry" />
        </mxCell>
        <mxCell id="ufa77di7OasuTqnlZrfF-66" value="" style="strokeWidth=2;html=1;shape=mxgraph.flowchart.annotation_2;align=left;labelPosition=right;pointerEvents=1;" vertex="1" parent="ufa77di7OasuTqnlZrfF-65">
          <mxGeometry x="80" width="50" height="70" as="geometry" />
        </mxCell>
        <mxCell id="ufa77di7OasuTqnlZrfF-67" value="基础数据层" style="text;html=1;resizable=0;autosize=1;align=center;verticalAlign=middle;points=[];fillColor=none;strokeColor=none;rounded=0;" vertex="1" parent="ufa77di7OasuTqnlZrfF-65">
          <mxGeometry y="25" width="80" height="20" as="geometry" />
        </mxCell>
        <mxCell id="ufa77di7OasuTqnlZrfF-68" value="" style="group" vertex="1" connectable="0" parent="1">
          <mxGeometry x="69" y="650" width="130" height="230" as="geometry" />
        </mxCell>
        <mxCell id="ufa77di7OasuTqnlZrfF-69" value="" style="strokeWidth=2;html=1;shape=mxgraph.flowchart.annotation_2;align=left;labelPosition=right;pointerEvents=1;" vertex="1" parent="ufa77di7OasuTqnlZrfF-68">
          <mxGeometry x="80" width="50" height="230" as="geometry" />
        </mxCell>
        <mxCell id="ufa77di7OasuTqnlZrfF-70" value="数据处理层" style="text;html=1;resizable=0;autosize=1;align=center;verticalAlign=middle;points=[];fillColor=none;strokeColor=none;rounded=0;" vertex="1" parent="ufa77di7OasuTqnlZrfF-68">
          <mxGeometry y="102.14285714285714" width="80" height="20" as="geometry" />
        </mxCell>
        <mxCell id="ufa77di7OasuTqnlZrfF-71" value="" style="group" vertex="1" connectable="0" parent="1">
          <mxGeometry x="69" y="400" width="130" height="210" as="geometry" />
        </mxCell>
        <mxCell id="ufa77di7OasuTqnlZrfF-72" value="" style="strokeWidth=2;html=1;shape=mxgraph.flowchart.annotation_2;align=left;labelPosition=right;pointerEvents=1;" vertex="1" parent="ufa77di7OasuTqnlZrfF-71">
          <mxGeometry x="80" width="50" height="210" as="geometry" />
        </mxCell>
        <mxCell id="ufa77di7OasuTqnlZrfF-73" value="推荐业务层" style="text;html=1;resizable=0;autosize=1;align=center;verticalAlign=middle;points=[];fillColor=none;strokeColor=none;rounded=0;" vertex="1" parent="ufa77di7OasuTqnlZrfF-71">
          <mxGeometry y="94" width="80" height="20" as="geometry" />
        </mxCell>
        <mxCell id="ufa77di7OasuTqnlZrfF-74" value="" style="rounded=0;whiteSpace=wrap;html=1;" vertex="1" parent="1">
          <mxGeometry x="530" y="530" width="120" height="80" as="geometry" />
        </mxCell>
        <mxCell id="ufa77di7OasuTqnlZrfF-75" value="候选集数据" style="rounded=1;whiteSpace=wrap;html=1;" vertex="1" parent="1">
          <mxGeometry x="547.5" y="558.75" width="85" height="22.5" as="geometry" />
        </mxCell>
        <mxCell id="ufa77di7OasuTqnlZrfF-76" value="特征数据" style="rounded=1;whiteSpace=wrap;html=1;" vertex="1" parent="1">
          <mxGeometry x="547.5" y="590" width="85" height="15.5" as="geometry" />
        </mxCell>
        <mxCell id="ufa77di7OasuTqnlZrfF-77" value="缓存数据" style="text;html=1;strokeColor=none;fillColor=none;align=center;verticalAlign=middle;whiteSpace=wrap;rounded=0;labelBackgroundColor=default;fontFamily=Georgia;fontSize=11;fontStyle=1" vertex="1" parent="1">
          <mxGeometry x="560" y="530" width="60" height="20" as="geometry" />
        </mxCell>
        <mxCell id="ufa77di7OasuTqnlZrfF-78" style="edgeStyle=orthogonalEdgeStyle;rounded=0;orthogonalLoop=1;jettySize=auto;html=1;entryX=1;entryY=0.5;entryDx=0;entryDy=0;fontFamily=Helvetica;fontSize=11;labelBackgroundColor=default;fontColor=none;noLabel=1;" edge="1" parent="1" source="ufa77di7OasuTqnlZrfF-4" target="ufa77di7OasuTqnlZrfF-75">
          <mxGeometry relative="1" as="geometry">
            <Array as="points">
              <mxPoint x="710" y="985" />
              <mxPoint x="710" y="570" />
            </Array>
          </mxGeometry>
        </mxCell>
        <mxCell id="ufa77di7OasuTqnlZrfF-79" value="合并实时召回集" style="edgeLabel;html=1;align=center;verticalAlign=middle;resizable=0;points=[];fontSize=8;fontFamily=Helvetica;fontColor=default;fontStyle=1" vertex="1" connectable="0" parent="ufa77di7OasuTqnlZrfF-78">
          <mxGeometry x="0.8267" y="1" relative="1" as="geometry">
            <mxPoint x="-10" y="-1" as="offset" />
          </mxGeometry>
        </mxCell>
        <mxCell id="ufa77di7OasuTqnlZrfF-80" style="edgeStyle=orthogonalEdgeStyle;rounded=0;orthogonalLoop=1;jettySize=auto;html=1;entryX=1;entryY=0.5;entryDx=0;entryDy=0;labelBackgroundColor=default;labelBorderColor=default;fontFamily=Helvetica;fontSize=11;fontColor=default;" edge="1" parent="1" source="ufa77di7OasuTqnlZrfF-4" target="ufa77di7OasuTqnlZrfF-76">
          <mxGeometry relative="1" as="geometry">
            <Array as="points">
              <mxPoint x="710" y="985" />
              <mxPoint x="710" y="598" />
            </Array>
          </mxGeometry>
        </mxCell>
        <mxCell id="ufa77di7OasuTqnlZrfF-81" value="在线特征更新" style="edgeLabel;html=1;align=center;verticalAlign=middle;resizable=0;points=[];fontSize=8;fontFamily=Helvetica;fontColor=default;fontStyle=1" vertex="1" connectable="0" parent="ufa77di7OasuTqnlZrfF-80">
          <mxGeometry x="0.828" y="1" relative="1" as="geometry">
            <mxPoint as="offset" />
          </mxGeometry>
        </mxCell>
        <mxCell id="ufa77di7OasuTqnlZrfF-82" value="流失计算" style="text;html=1;strokeColor=none;fillColor=none;align=center;verticalAlign=middle;whiteSpace=wrap;rounded=0;labelBackgroundColor=default;fontFamily=Helvetica;fontSize=11;fontColor=default;labelBorderColor=none;fontStyle=1" vertex="1" parent="1">
          <mxGeometry x="680" y="860" width="60" height="30" as="geometry" />
        </mxCell>
        <mxCell id="ufa77di7OasuTqnlZrfF-83" style="edgeStyle=orthogonalEdgeStyle;rounded=0;orthogonalLoop=1;jettySize=auto;html=1;labelBackgroundColor=default;labelBorderColor=default;fontFamily=Helvetica;fontSize=11;fontColor=default;" edge="1" parent="1" source="ufa77di7OasuTqnlZrfF-84" target="ufa77di7OasuTqnlZrfF-82">
          <mxGeometry relative="1" as="geometry" />
        </mxCell>
        <mxCell id="ufa77di7OasuTqnlZrfF-84" value="" style="rounded=1;whiteSpace=wrap;html=1;" vertex="1" parent="1">
          <mxGeometry x="751.5" y="890" width="85" height="22.5" as="geometry" />
        </mxCell>
        <mxCell id="ufa77di7OasuTqnlZrfF-85" value="相似度矩阵" style="rounded=1;whiteSpace=wrap;html=1;" vertex="1" parent="1">
          <mxGeometry x="740" y="897.5" width="85" height="22.5" as="geometry" />
        </mxCell>
        <mxCell id="ufa77di7OasuTqnlZrfF-86" value="" style="group" vertex="1" connectable="0" parent="1">
          <mxGeometry x="740" y="800" width="96.5" height="30" as="geometry" />
        </mxCell>
        <mxCell id="ufa77di7OasuTqnlZrfF-87" value="" style="rounded=1;whiteSpace=wrap;html=1;" vertex="1" parent="ufa77di7OasuTqnlZrfF-86">
          <mxGeometry x="11.5" width="85" height="22.5" as="geometry" />
        </mxCell>
        <mxCell id="ufa77di7OasuTqnlZrfF-88" value="用户画像" style="rounded=1;whiteSpace=wrap;html=1;" vertex="1" parent="ufa77di7OasuTqnlZrfF-86">
          <mxGeometry y="7.5" width="85" height="22.5" as="geometry" />
        </mxCell>
        <mxCell id="ufa77di7OasuTqnlZrfF-89" style="edgeStyle=orthogonalEdgeStyle;rounded=0;orthogonalLoop=1;jettySize=auto;html=1;entryX=0.75;entryY=0;entryDx=0;entryDy=0;labelBackgroundColor=default;labelBorderColor=default;fontFamily=Helvetica;fontSize=11;fontColor=default;" edge="1" parent="1" target="ufa77di7OasuTqnlZrfF-82">
          <mxGeometry relative="1" as="geometry">
            <mxPoint x="740" y="820" as="sourcePoint" />
            <Array as="points">
              <mxPoint x="725" y="820" />
            </Array>
          </mxGeometry>
        </mxCell>
        <mxCell id="ufa77di7OasuTqnlZrfF-90" style="edgeStyle=orthogonalEdgeStyle;rounded=0;orthogonalLoop=1;jettySize=auto;html=1;labelBackgroundColor=default;labelBorderColor=default;fontFamily=Helvetica;fontSize=8;fontColor=default;entryX=0.029;entryY=0.5;entryDx=0;entryDy=0;entryPerimeter=0;" edge="1" parent="1" source="ufa77di7OasuTqnlZrfF-10" target="ufa77di7OasuTqnlZrfF-76">
          <mxGeometry relative="1" as="geometry">
            <Array as="points">
              <mxPoint x="510" y="865" />
              <mxPoint x="510" y="600" />
              <mxPoint x="547" y="600" />
              <mxPoint x="547" y="598" />
            </Array>
          </mxGeometry>
        </mxCell>
      </root>
    </mxGraphModel>
  </diagram>
</mxfile>
